<svg xmlns="http://www.w3.org/2000/svg" width="32" height="32" viewBox="0 0 32 32">
  <rect width="32" height="32" rx="7" fill="#0d0d0d"/>
  <g transform="translate(4,4)" fill="none" stroke="#5ab4e8" stroke-width="2"
     stroke-linecap="round" stroke-linejoin="round">
    <path d="M15 9a1 1 0 1 0 2 0a1 1 0 1 0 -2 0"/>
    <path d="M6 11l4 -2l3.5 3l-1.5 2"/>
    <path d="M3 16.75a2.4 2.4 0 0 0 1 .25a2.4 2.4 0 0 0 2 -1a2.4 2.4 0 0 1 2 -1a2.4 2.4 0 0 1 2 1a2.4 2.4 0 0 0 2 1a2.4 2.4 0 0 0 2 -1a2.4 2.4 0 0 1 2 -1a2.4 2.4 0 0 1 2 1a2.4 2.4 0 0 0 2 1a2.4 2.4 0 0 0 1 -.25"/>
  </g>
</svg>
